<mxfile host="app.diagrams.net" modified="2022-03-15T10:18:55.097Z" agent="5.0 (Windows NT 10.0; Win64; x64) AppleWebKit/537.36 (KHTML, like Gecko) Chrome/99.0.4844.51 Safari/537.36" etag="q2Qhef1CmBjlF9Ky4SJB" version="17.1.2" type="github" pages="4">
  <diagram id="cUsuwcZlSPQVPA4hMh6P" name="UML Дневник Ру">
    <mxGraphModel dx="1673" dy="934" grid="1" gridSize="10" guides="1" tooltips="1" connect="1" arrows="1" fold="1" page="1" pageScale="1" pageWidth="1169" pageHeight="827" math="0" shadow="0">
      <root>
        <mxCell id="0" />
        <mxCell id="1" parent="0" />
        <mxCell id="rM5A1ii3a1wzsuu1XTLG-1" value="&lt;font style=&quot;vertical-align: inherit&quot;&gt;&lt;font style=&quot;vertical-align: inherit&quot;&gt;Преподаватель&lt;/font&gt;&lt;/font&gt;" style="shape=umlActor;verticalLabelPosition=bottom;verticalAlign=top;html=1;outlineConnect=0;" vertex="1" parent="1">
          <mxGeometry x="339" y="400" width="30" height="60" as="geometry" />
        </mxCell>
        <mxCell id="rM5A1ii3a1wzsuu1XTLG-2" value="&lt;font style=&quot;vertical-align: inherit&quot;&gt;&lt;font style=&quot;vertical-align: inherit&quot;&gt;Админ&lt;/font&gt;&lt;/font&gt;" style="shape=umlActor;verticalLabelPosition=bottom;verticalAlign=top;html=1;outlineConnect=0;" vertex="1" parent="1">
          <mxGeometry x="339" y="270" width="30" height="60" as="geometry" />
        </mxCell>
        <mxCell id="rM5A1ii3a1wzsuu1XTLG-3" value="&lt;font style=&quot;vertical-align: inherit&quot;&gt;&lt;font style=&quot;vertical-align: inherit&quot;&gt;Студент/родитель&lt;/font&gt;&lt;/font&gt;" style="shape=umlActor;verticalLabelPosition=bottom;verticalAlign=top;html=1;outlineConnect=0;" vertex="1" parent="1">
          <mxGeometry x="339" y="550" width="30" height="60" as="geometry" />
        </mxCell>
        <mxCell id="rM5A1ii3a1wzsuu1XTLG-5" value="" style="rounded=0;whiteSpace=wrap;html=1;" vertex="1" parent="1">
          <mxGeometry x="449" y="160" width="720" height="500" as="geometry" />
        </mxCell>
        <mxCell id="rM5A1ii3a1wzsuu1XTLG-6" value="&lt;font style=&quot;vertical-align: inherit&quot;&gt;&lt;font style=&quot;vertical-align: inherit&quot;&gt;Редактирование/создание учётных записей пользователей&lt;/font&gt;&lt;/font&gt;" style="ellipse;whiteSpace=wrap;html=1;" vertex="1" parent="1">
          <mxGeometry x="559" y="180" width="120" height="80" as="geometry" />
        </mxCell>
        <mxCell id="rM5A1ii3a1wzsuu1XTLG-7" value="&lt;font style=&quot;vertical-align: inherit&quot;&gt;&lt;font style=&quot;vertical-align: inherit&quot;&gt;Просмотр дисциплин&lt;/font&gt;&lt;/font&gt;" style="ellipse;whiteSpace=wrap;html=1;" vertex="1" parent="1">
          <mxGeometry x="749" y="540" width="120" height="80" as="geometry" />
        </mxCell>
        <mxCell id="rM5A1ii3a1wzsuu1XTLG-8" value="&lt;font style=&quot;vertical-align: inherit&quot;&gt;&lt;font style=&quot;vertical-align: inherit&quot;&gt;Редактирование/создание новых дисциплин&lt;/font&gt;&lt;/font&gt;" style="ellipse;whiteSpace=wrap;html=1;" vertex="1" parent="1">
          <mxGeometry x="559" y="300" width="120" height="80" as="geometry" />
        </mxCell>
        <mxCell id="rM5A1ii3a1wzsuu1XTLG-9" value="&lt;font style=&quot;vertical-align: inherit&quot;&gt;&lt;font style=&quot;vertical-align: inherit&quot;&gt;Выбор сотрудников по дисциплинам&lt;/font&gt;&lt;/font&gt;" style="ellipse;whiteSpace=wrap;html=1;" vertex="1" parent="1">
          <mxGeometry x="749" y="390" width="120" height="80" as="geometry" />
        </mxCell>
        <mxCell id="rM5A1ii3a1wzsuu1XTLG-10" value="" style="endArrow=none;html=1;rounded=0;entryX=0.5;entryY=1;entryDx=0;entryDy=0;exitX=0.5;exitY=0;exitDx=0;exitDy=0;" edge="1" parent="1" source="rM5A1ii3a1wzsuu1XTLG-8" target="rM5A1ii3a1wzsuu1XTLG-6">
          <mxGeometry width="50" height="50" relative="1" as="geometry">
            <mxPoint x="889" y="370" as="sourcePoint" />
            <mxPoint x="939" y="320" as="targetPoint" />
          </mxGeometry>
        </mxCell>
        <mxCell id="rM5A1ii3a1wzsuu1XTLG-11" value="" style="endArrow=classic;html=1;rounded=0;exitX=0.5;exitY=0.5;exitDx=0;exitDy=0;exitPerimeter=0;entryX=0;entryY=0.5;entryDx=0;entryDy=0;" edge="1" parent="1" source="rM5A1ii3a1wzsuu1XTLG-2" target="rM5A1ii3a1wzsuu1XTLG-6">
          <mxGeometry width="50" height="50" relative="1" as="geometry">
            <mxPoint x="889" y="370" as="sourcePoint" />
            <mxPoint x="939" y="320" as="targetPoint" />
          </mxGeometry>
        </mxCell>
        <mxCell id="rM5A1ii3a1wzsuu1XTLG-13" value="" style="endArrow=classic;html=1;rounded=0;exitX=0.5;exitY=0.5;exitDx=0;exitDy=0;exitPerimeter=0;entryX=0;entryY=0.5;entryDx=0;entryDy=0;" edge="1" parent="1" source="rM5A1ii3a1wzsuu1XTLG-1" target="rM5A1ii3a1wzsuu1XTLG-9">
          <mxGeometry width="50" height="50" relative="1" as="geometry">
            <mxPoint x="889" y="360" as="sourcePoint" />
            <mxPoint x="939" y="310" as="targetPoint" />
          </mxGeometry>
        </mxCell>
        <mxCell id="rM5A1ii3a1wzsuu1XTLG-14" value="" style="endArrow=classic;html=1;rounded=0;exitX=0.5;exitY=0.5;exitDx=0;exitDy=0;exitPerimeter=0;entryX=0;entryY=0.5;entryDx=0;entryDy=0;" edge="1" parent="1" source="rM5A1ii3a1wzsuu1XTLG-3" target="rM5A1ii3a1wzsuu1XTLG-7">
          <mxGeometry width="50" height="50" relative="1" as="geometry">
            <mxPoint x="889" y="360" as="sourcePoint" />
            <mxPoint x="939" y="310" as="targetPoint" />
          </mxGeometry>
        </mxCell>
        <mxCell id="rM5A1ii3a1wzsuu1XTLG-15" value="" style="endArrow=classic;html=1;rounded=0;exitX=0.5;exitY=0.5;exitDx=0;exitDy=0;exitPerimeter=0;entryX=0;entryY=0.5;entryDx=0;entryDy=0;" edge="1" parent="1" source="rM5A1ii3a1wzsuu1XTLG-1" target="rM5A1ii3a1wzsuu1XTLG-7">
          <mxGeometry width="50" height="50" relative="1" as="geometry">
            <mxPoint x="889" y="360" as="sourcePoint" />
            <mxPoint x="939" y="310" as="targetPoint" />
          </mxGeometry>
        </mxCell>
        <mxCell id="rM5A1ii3a1wzsuu1XTLG-16" value="&lt;font style=&quot;vertical-align: inherit&quot;&gt;&lt;font style=&quot;vertical-align: inherit&quot;&gt;&lt;font style=&quot;vertical-align: inherit&quot;&gt;&lt;font style=&quot;vertical-align: inherit&quot;&gt;Просмотр учебных групп&lt;/font&gt;&lt;/font&gt;&lt;/font&gt;&lt;/font&gt;" style="ellipse;whiteSpace=wrap;html=1;" vertex="1" parent="1">
          <mxGeometry x="929" y="470" width="120" height="80" as="geometry" />
        </mxCell>
        <mxCell id="rM5A1ii3a1wzsuu1XTLG-17" value="" style="endArrow=classic;html=1;rounded=0;exitX=0.5;exitY=0.5;exitDx=0;exitDy=0;exitPerimeter=0;entryX=0;entryY=0.5;entryDx=0;entryDy=0;" edge="1" parent="1" source="rM5A1ii3a1wzsuu1XTLG-1" target="rM5A1ii3a1wzsuu1XTLG-16">
          <mxGeometry width="50" height="50" relative="1" as="geometry">
            <mxPoint x="889" y="360" as="sourcePoint" />
            <mxPoint x="939" y="310" as="targetPoint" />
            <Array as="points">
              <mxPoint x="639" y="510" />
            </Array>
          </mxGeometry>
        </mxCell>
        <mxCell id="rM5A1ii3a1wzsuu1XTLG-21" value="&lt;font style=&quot;vertical-align: inherit&quot;&gt;&lt;font style=&quot;vertical-align: inherit&quot;&gt;Гость&lt;/font&gt;&lt;/font&gt;" style="shape=umlActor;verticalLabelPosition=bottom;verticalAlign=top;html=1;outlineConnect=0;" vertex="1" parent="1">
          <mxGeometry x="10" y="400" width="30" height="60" as="geometry" />
        </mxCell>
        <mxCell id="rM5A1ii3a1wzsuu1XTLG-22" value="&lt;font style=&quot;vertical-align: inherit&quot;&gt;&lt;font style=&quot;vertical-align: inherit&quot;&gt;Авторизация&lt;/font&gt;&lt;/font&gt;" style="ellipse;whiteSpace=wrap;html=1;" vertex="1" parent="1">
          <mxGeometry x="140" y="390" width="120" height="80" as="geometry" />
        </mxCell>
        <mxCell id="rM5A1ii3a1wzsuu1XTLG-23" value="" style="endArrow=classic;html=1;rounded=0;exitX=0.5;exitY=0.5;exitDx=0;exitDy=0;exitPerimeter=0;entryX=0;entryY=0.5;entryDx=0;entryDy=0;" edge="1" parent="1" source="rM5A1ii3a1wzsuu1XTLG-21" target="rM5A1ii3a1wzsuu1XTLG-22">
          <mxGeometry width="50" height="50" relative="1" as="geometry">
            <mxPoint x="430" y="340" as="sourcePoint" />
            <mxPoint x="480" y="290" as="targetPoint" />
          </mxGeometry>
        </mxCell>
        <mxCell id="rM5A1ii3a1wzsuu1XTLG-24" value="" style="endArrow=classic;html=1;rounded=0;exitX=0.5;exitY=0;exitDx=0;exitDy=0;entryX=0.5;entryY=0.5;entryDx=0;entryDy=0;entryPerimeter=0;" edge="1" parent="1" source="rM5A1ii3a1wzsuu1XTLG-22" target="rM5A1ii3a1wzsuu1XTLG-2">
          <mxGeometry width="50" height="50" relative="1" as="geometry">
            <mxPoint x="430" y="340" as="sourcePoint" />
            <mxPoint x="480" y="290" as="targetPoint" />
          </mxGeometry>
        </mxCell>
        <mxCell id="rM5A1ii3a1wzsuu1XTLG-25" value="" style="endArrow=classic;html=1;rounded=0;exitX=1;exitY=0.5;exitDx=0;exitDy=0;entryX=0.5;entryY=0.5;entryDx=0;entryDy=0;entryPerimeter=0;" edge="1" parent="1" source="rM5A1ii3a1wzsuu1XTLG-22" target="rM5A1ii3a1wzsuu1XTLG-1">
          <mxGeometry width="50" height="50" relative="1" as="geometry">
            <mxPoint x="430" y="340" as="sourcePoint" />
            <mxPoint x="480" y="290" as="targetPoint" />
          </mxGeometry>
        </mxCell>
        <mxCell id="rM5A1ii3a1wzsuu1XTLG-26" value="" style="endArrow=classic;html=1;rounded=0;exitX=0.5;exitY=1;exitDx=0;exitDy=0;entryX=0.5;entryY=0.5;entryDx=0;entryDy=0;entryPerimeter=0;" edge="1" parent="1" source="rM5A1ii3a1wzsuu1XTLG-22" target="rM5A1ii3a1wzsuu1XTLG-3">
          <mxGeometry width="50" height="50" relative="1" as="geometry">
            <mxPoint x="430" y="340" as="sourcePoint" />
            <mxPoint x="480" y="290" as="targetPoint" />
          </mxGeometry>
        </mxCell>
        <mxCell id="rM5A1ii3a1wzsuu1XTLG-27" value="" style="endArrow=classic;html=1;rounded=0;entryX=0;entryY=0.5;entryDx=0;entryDy=0;exitX=0.5;exitY=0.5;exitDx=0;exitDy=0;exitPerimeter=0;" edge="1" parent="1" source="rM5A1ii3a1wzsuu1XTLG-2" target="rM5A1ii3a1wzsuu1XTLG-9">
          <mxGeometry width="50" height="50" relative="1" as="geometry">
            <mxPoint x="700" y="450" as="sourcePoint" />
            <mxPoint x="750" y="400" as="targetPoint" />
            <Array as="points">
              <mxPoint x="540" y="400" />
            </Array>
          </mxGeometry>
        </mxCell>
        <mxCell id="rM5A1ii3a1wzsuu1XTLG-28" value="" style="endArrow=classic;html=1;rounded=0;exitX=1;exitY=0.5;exitDx=0;exitDy=0;entryX=0.5;entryY=0;entryDx=0;entryDy=0;" edge="1" parent="1" source="rM5A1ii3a1wzsuu1XTLG-9" target="rM5A1ii3a1wzsuu1XTLG-16">
          <mxGeometry width="50" height="50" relative="1" as="geometry">
            <mxPoint x="700" y="450" as="sourcePoint" />
            <mxPoint x="750" y="400" as="targetPoint" />
          </mxGeometry>
        </mxCell>
        <mxCell id="rM5A1ii3a1wzsuu1XTLG-29" value="" style="endArrow=classic;html=1;rounded=0;exitX=0;exitY=1;exitDx=0;exitDy=0;entryX=1;entryY=0.5;entryDx=0;entryDy=0;" edge="1" parent="1" source="rM5A1ii3a1wzsuu1XTLG-16" target="rM5A1ii3a1wzsuu1XTLG-7">
          <mxGeometry width="50" height="50" relative="1" as="geometry">
            <mxPoint x="700" y="450" as="sourcePoint" />
            <mxPoint x="750" y="400" as="targetPoint" />
          </mxGeometry>
        </mxCell>
        <mxCell id="rM5A1ii3a1wzsuu1XTLG-30" value="&lt;font style=&quot;vertical-align: inherit&quot;&gt;&lt;font style=&quot;vertical-align: inherit&quot;&gt;Редактирование/создание учебных групп&lt;/font&gt;&lt;/font&gt;" style="ellipse;whiteSpace=wrap;html=1;" vertex="1" parent="1">
          <mxGeometry x="749" y="300" width="120" height="80" as="geometry" />
        </mxCell>
        <mxCell id="rM5A1ii3a1wzsuu1XTLG-31" value="" style="endArrow=none;html=1;rounded=0;entryX=1;entryY=0.5;entryDx=0;entryDy=0;exitX=0;exitY=0.5;exitDx=0;exitDy=0;" edge="1" parent="1" source="rM5A1ii3a1wzsuu1XTLG-30" target="rM5A1ii3a1wzsuu1XTLG-8">
          <mxGeometry width="50" height="50" relative="1" as="geometry">
            <mxPoint x="700" y="440" as="sourcePoint" />
            <mxPoint x="750" y="390" as="targetPoint" />
          </mxGeometry>
        </mxCell>
      </root>
    </mxGraphModel>
  </diagram>
  <diagram id="dHkDHIUwTLg4uaZZniPE" name="БД Дневник Ру">
    <mxGraphModel dx="981" dy="548" grid="1" gridSize="10" guides="1" tooltips="1" connect="1" arrows="1" fold="1" page="1" pageScale="1" pageWidth="1169" pageHeight="827" math="0" shadow="0">
      <root>
        <mxCell id="H_4iObofJ6NXQ9z-i4Xd-0" />
        <mxCell id="H_4iObofJ6NXQ9z-i4Xd-1" parent="H_4iObofJ6NXQ9z-i4Xd-0" />
        <mxCell id="H_4iObofJ6NXQ9z-i4Xd-6" value="Сотрудники" style="shape=table;startSize=30;container=1;collapsible=1;childLayout=tableLayout;fixedRows=1;rowLines=0;fontStyle=1;align=center;resizeLast=1;" vertex="1" parent="H_4iObofJ6NXQ9z-i4Xd-1">
          <mxGeometry x="110" y="110" width="170" height="270" as="geometry" />
        </mxCell>
        <mxCell id="H_4iObofJ6NXQ9z-i4Xd-7" value="" style="shape=tableRow;horizontal=0;startSize=0;swimlaneHead=0;swimlaneBody=0;fillColor=none;collapsible=0;dropTarget=0;points=[[0,0.5],[1,0.5]];portConstraint=eastwest;top=0;left=0;right=0;bottom=1;" vertex="1" parent="H_4iObofJ6NXQ9z-i4Xd-6">
          <mxGeometry y="30" width="170" height="30" as="geometry" />
        </mxCell>
        <mxCell id="H_4iObofJ6NXQ9z-i4Xd-8" value="PK" style="shape=partialRectangle;connectable=0;fillColor=none;top=0;left=0;bottom=0;right=0;fontStyle=1;overflow=hidden;" vertex="1" parent="H_4iObofJ6NXQ9z-i4Xd-7">
          <mxGeometry width="30" height="30" as="geometry">
            <mxRectangle width="30" height="30" as="alternateBounds" />
          </mxGeometry>
        </mxCell>
        <mxCell id="H_4iObofJ6NXQ9z-i4Xd-9" value="UniqueID" style="shape=partialRectangle;connectable=0;fillColor=none;top=0;left=0;bottom=0;right=0;align=left;spacingLeft=6;fontStyle=5;overflow=hidden;" vertex="1" parent="H_4iObofJ6NXQ9z-i4Xd-7">
          <mxGeometry x="30" width="140" height="30" as="geometry">
            <mxRectangle width="140" height="30" as="alternateBounds" />
          </mxGeometry>
        </mxCell>
        <mxCell id="H_4iObofJ6NXQ9z-i4Xd-10" value="" style="shape=tableRow;horizontal=0;startSize=0;swimlaneHead=0;swimlaneBody=0;fillColor=none;collapsible=0;dropTarget=0;points=[[0,0.5],[1,0.5]];portConstraint=eastwest;top=0;left=0;right=0;bottom=0;" vertex="1" parent="H_4iObofJ6NXQ9z-i4Xd-6">
          <mxGeometry y="60" width="170" height="30" as="geometry" />
        </mxCell>
        <mxCell id="H_4iObofJ6NXQ9z-i4Xd-11" value="1" style="shape=partialRectangle;connectable=0;fillColor=none;top=0;left=0;bottom=0;right=0;editable=1;overflow=hidden;" vertex="1" parent="H_4iObofJ6NXQ9z-i4Xd-10">
          <mxGeometry width="30" height="30" as="geometry">
            <mxRectangle width="30" height="30" as="alternateBounds" />
          </mxGeometry>
        </mxCell>
        <mxCell id="H_4iObofJ6NXQ9z-i4Xd-12" value="Фамилия" style="shape=partialRectangle;connectable=0;fillColor=none;top=0;left=0;bottom=0;right=0;align=left;spacingLeft=6;overflow=hidden;" vertex="1" parent="H_4iObofJ6NXQ9z-i4Xd-10">
          <mxGeometry x="30" width="140" height="30" as="geometry">
            <mxRectangle width="140" height="30" as="alternateBounds" />
          </mxGeometry>
        </mxCell>
        <mxCell id="H_4iObofJ6NXQ9z-i4Xd-13" value="" style="shape=tableRow;horizontal=0;startSize=0;swimlaneHead=0;swimlaneBody=0;fillColor=none;collapsible=0;dropTarget=0;points=[[0,0.5],[1,0.5]];portConstraint=eastwest;top=0;left=0;right=0;bottom=0;" vertex="1" parent="H_4iObofJ6NXQ9z-i4Xd-6">
          <mxGeometry y="90" width="170" height="30" as="geometry" />
        </mxCell>
        <mxCell id="H_4iObofJ6NXQ9z-i4Xd-14" value="2" style="shape=partialRectangle;connectable=0;fillColor=none;top=0;left=0;bottom=0;right=0;editable=1;overflow=hidden;" vertex="1" parent="H_4iObofJ6NXQ9z-i4Xd-13">
          <mxGeometry width="30" height="30" as="geometry">
            <mxRectangle width="30" height="30" as="alternateBounds" />
          </mxGeometry>
        </mxCell>
        <mxCell id="H_4iObofJ6NXQ9z-i4Xd-15" value="Имя" style="shape=partialRectangle;connectable=0;fillColor=none;top=0;left=0;bottom=0;right=0;align=left;spacingLeft=6;overflow=hidden;" vertex="1" parent="H_4iObofJ6NXQ9z-i4Xd-13">
          <mxGeometry x="30" width="140" height="30" as="geometry">
            <mxRectangle width="140" height="30" as="alternateBounds" />
          </mxGeometry>
        </mxCell>
        <mxCell id="H_4iObofJ6NXQ9z-i4Xd-16" value="" style="shape=tableRow;horizontal=0;startSize=0;swimlaneHead=0;swimlaneBody=0;fillColor=none;collapsible=0;dropTarget=0;points=[[0,0.5],[1,0.5]];portConstraint=eastwest;top=0;left=0;right=0;bottom=0;" vertex="1" parent="H_4iObofJ6NXQ9z-i4Xd-6">
          <mxGeometry y="120" width="170" height="30" as="geometry" />
        </mxCell>
        <mxCell id="H_4iObofJ6NXQ9z-i4Xd-17" value="3" style="shape=partialRectangle;connectable=0;fillColor=none;top=0;left=0;bottom=0;right=0;editable=1;overflow=hidden;" vertex="1" parent="H_4iObofJ6NXQ9z-i4Xd-16">
          <mxGeometry width="30" height="30" as="geometry">
            <mxRectangle width="30" height="30" as="alternateBounds" />
          </mxGeometry>
        </mxCell>
        <mxCell id="H_4iObofJ6NXQ9z-i4Xd-18" value="Отчество" style="shape=partialRectangle;connectable=0;fillColor=none;top=0;left=0;bottom=0;right=0;align=left;spacingLeft=6;overflow=hidden;" vertex="1" parent="H_4iObofJ6NXQ9z-i4Xd-16">
          <mxGeometry x="30" width="140" height="30" as="geometry">
            <mxRectangle width="140" height="30" as="alternateBounds" />
          </mxGeometry>
        </mxCell>
        <mxCell id="H_4iObofJ6NXQ9z-i4Xd-30" style="shape=tableRow;horizontal=0;startSize=0;swimlaneHead=0;swimlaneBody=0;fillColor=none;collapsible=0;dropTarget=0;points=[[0,0.5],[1,0.5]];portConstraint=eastwest;top=0;left=0;right=0;bottom=0;" vertex="1" parent="H_4iObofJ6NXQ9z-i4Xd-6">
          <mxGeometry y="150" width="170" height="30" as="geometry" />
        </mxCell>
        <mxCell id="H_4iObofJ6NXQ9z-i4Xd-31" value="4" style="shape=partialRectangle;connectable=0;fillColor=none;top=0;left=0;bottom=0;right=0;editable=1;overflow=hidden;" vertex="1" parent="H_4iObofJ6NXQ9z-i4Xd-30">
          <mxGeometry width="30" height="30" as="geometry">
            <mxRectangle width="30" height="30" as="alternateBounds" />
          </mxGeometry>
        </mxCell>
        <mxCell id="H_4iObofJ6NXQ9z-i4Xd-32" value="Дата рождения" style="shape=partialRectangle;connectable=0;fillColor=none;top=0;left=0;bottom=0;right=0;align=left;spacingLeft=6;overflow=hidden;" vertex="1" parent="H_4iObofJ6NXQ9z-i4Xd-30">
          <mxGeometry x="30" width="140" height="30" as="geometry">
            <mxRectangle width="140" height="30" as="alternateBounds" />
          </mxGeometry>
        </mxCell>
        <mxCell id="H_4iObofJ6NXQ9z-i4Xd-33" style="shape=tableRow;horizontal=0;startSize=0;swimlaneHead=0;swimlaneBody=0;fillColor=none;collapsible=0;dropTarget=0;points=[[0,0.5],[1,0.5]];portConstraint=eastwest;top=0;left=0;right=0;bottom=0;" vertex="1" parent="H_4iObofJ6NXQ9z-i4Xd-6">
          <mxGeometry y="180" width="170" height="30" as="geometry" />
        </mxCell>
        <mxCell id="H_4iObofJ6NXQ9z-i4Xd-34" value="5" style="shape=partialRectangle;connectable=0;fillColor=none;top=0;left=0;bottom=0;right=0;editable=1;overflow=hidden;" vertex="1" parent="H_4iObofJ6NXQ9z-i4Xd-33">
          <mxGeometry width="30" height="30" as="geometry">
            <mxRectangle width="30" height="30" as="alternateBounds" />
          </mxGeometry>
        </mxCell>
        <mxCell id="H_4iObofJ6NXQ9z-i4Xd-35" value="Место прописки" style="shape=partialRectangle;connectable=0;fillColor=none;top=0;left=0;bottom=0;right=0;align=left;spacingLeft=6;overflow=hidden;" vertex="1" parent="H_4iObofJ6NXQ9z-i4Xd-33">
          <mxGeometry x="30" width="140" height="30" as="geometry">
            <mxRectangle width="140" height="30" as="alternateBounds" />
          </mxGeometry>
        </mxCell>
        <mxCell id="H_4iObofJ6NXQ9z-i4Xd-36" style="shape=tableRow;horizontal=0;startSize=0;swimlaneHead=0;swimlaneBody=0;fillColor=none;collapsible=0;dropTarget=0;points=[[0,0.5],[1,0.5]];portConstraint=eastwest;top=0;left=0;right=0;bottom=0;" vertex="1" parent="H_4iObofJ6NXQ9z-i4Xd-6">
          <mxGeometry y="210" width="170" height="30" as="geometry" />
        </mxCell>
        <mxCell id="H_4iObofJ6NXQ9z-i4Xd-37" value="6" style="shape=partialRectangle;connectable=0;fillColor=none;top=0;left=0;bottom=0;right=0;editable=1;overflow=hidden;" vertex="1" parent="H_4iObofJ6NXQ9z-i4Xd-36">
          <mxGeometry width="30" height="30" as="geometry">
            <mxRectangle width="30" height="30" as="alternateBounds" />
          </mxGeometry>
        </mxCell>
        <mxCell id="H_4iObofJ6NXQ9z-i4Xd-38" value="Пол" style="shape=partialRectangle;connectable=0;fillColor=none;top=0;left=0;bottom=0;right=0;align=left;spacingLeft=6;overflow=hidden;" vertex="1" parent="H_4iObofJ6NXQ9z-i4Xd-36">
          <mxGeometry x="30" width="140" height="30" as="geometry">
            <mxRectangle width="140" height="30" as="alternateBounds" />
          </mxGeometry>
        </mxCell>
        <mxCell id="H_4iObofJ6NXQ9z-i4Xd-39" style="shape=tableRow;horizontal=0;startSize=0;swimlaneHead=0;swimlaneBody=0;fillColor=none;collapsible=0;dropTarget=0;points=[[0,0.5],[1,0.5]];portConstraint=eastwest;top=0;left=0;right=0;bottom=0;" vertex="1" parent="H_4iObofJ6NXQ9z-i4Xd-6">
          <mxGeometry y="240" width="170" height="30" as="geometry" />
        </mxCell>
        <mxCell id="H_4iObofJ6NXQ9z-i4Xd-40" value="7" style="shape=partialRectangle;connectable=0;fillColor=none;top=0;left=0;bottom=0;right=0;editable=1;overflow=hidden;" vertex="1" parent="H_4iObofJ6NXQ9z-i4Xd-39">
          <mxGeometry width="30" height="30" as="geometry">
            <mxRectangle width="30" height="30" as="alternateBounds" />
          </mxGeometry>
        </mxCell>
        <mxCell id="H_4iObofJ6NXQ9z-i4Xd-41" value="Учётная запись" style="shape=partialRectangle;connectable=0;fillColor=none;top=0;left=0;bottom=0;right=0;align=left;spacingLeft=6;overflow=hidden;" vertex="1" parent="H_4iObofJ6NXQ9z-i4Xd-39">
          <mxGeometry x="30" width="140" height="30" as="geometry">
            <mxRectangle width="140" height="30" as="alternateBounds" />
          </mxGeometry>
        </mxCell>
        <mxCell id="H_4iObofJ6NXQ9z-i4Xd-43" value="Подразделения" style="shape=table;startSize=30;container=1;collapsible=1;childLayout=tableLayout;fixedRows=1;rowLines=0;fontStyle=1;align=center;resizeLast=1;" vertex="1" parent="H_4iObofJ6NXQ9z-i4Xd-1">
          <mxGeometry x="540" y="110" width="180" height="120" as="geometry" />
        </mxCell>
        <mxCell id="H_4iObofJ6NXQ9z-i4Xd-44" value="" style="shape=tableRow;horizontal=0;startSize=0;swimlaneHead=0;swimlaneBody=0;fillColor=none;collapsible=0;dropTarget=0;points=[[0,0.5],[1,0.5]];portConstraint=eastwest;top=0;left=0;right=0;bottom=1;" vertex="1" parent="H_4iObofJ6NXQ9z-i4Xd-43">
          <mxGeometry y="30" width="180" height="30" as="geometry" />
        </mxCell>
        <mxCell id="H_4iObofJ6NXQ9z-i4Xd-45" value="PK" style="shape=partialRectangle;connectable=0;fillColor=none;top=0;left=0;bottom=0;right=0;fontStyle=1;overflow=hidden;" vertex="1" parent="H_4iObofJ6NXQ9z-i4Xd-44">
          <mxGeometry width="30" height="30" as="geometry">
            <mxRectangle width="30" height="30" as="alternateBounds" />
          </mxGeometry>
        </mxCell>
        <mxCell id="H_4iObofJ6NXQ9z-i4Xd-46" value="UniqueID" style="shape=partialRectangle;connectable=0;fillColor=none;top=0;left=0;bottom=0;right=0;align=left;spacingLeft=6;fontStyle=5;overflow=hidden;" vertex="1" parent="H_4iObofJ6NXQ9z-i4Xd-44">
          <mxGeometry x="30" width="150" height="30" as="geometry">
            <mxRectangle width="150" height="30" as="alternateBounds" />
          </mxGeometry>
        </mxCell>
        <mxCell id="H_4iObofJ6NXQ9z-i4Xd-47" value="" style="shape=tableRow;horizontal=0;startSize=0;swimlaneHead=0;swimlaneBody=0;fillColor=none;collapsible=0;dropTarget=0;points=[[0,0.5],[1,0.5]];portConstraint=eastwest;top=0;left=0;right=0;bottom=0;" vertex="1" parent="H_4iObofJ6NXQ9z-i4Xd-43">
          <mxGeometry y="60" width="180" height="30" as="geometry" />
        </mxCell>
        <mxCell id="H_4iObofJ6NXQ9z-i4Xd-48" value="1" style="shape=partialRectangle;connectable=0;fillColor=none;top=0;left=0;bottom=0;right=0;editable=1;overflow=hidden;" vertex="1" parent="H_4iObofJ6NXQ9z-i4Xd-47">
          <mxGeometry width="30" height="30" as="geometry">
            <mxRectangle width="30" height="30" as="alternateBounds" />
          </mxGeometry>
        </mxCell>
        <mxCell id="H_4iObofJ6NXQ9z-i4Xd-49" value="Название" style="shape=partialRectangle;connectable=0;fillColor=none;top=0;left=0;bottom=0;right=0;align=left;spacingLeft=6;overflow=hidden;" vertex="1" parent="H_4iObofJ6NXQ9z-i4Xd-47">
          <mxGeometry x="30" width="150" height="30" as="geometry">
            <mxRectangle width="150" height="30" as="alternateBounds" />
          </mxGeometry>
        </mxCell>
        <mxCell id="H_4iObofJ6NXQ9z-i4Xd-50" value="" style="shape=tableRow;horizontal=0;startSize=0;swimlaneHead=0;swimlaneBody=0;fillColor=none;collapsible=0;dropTarget=0;points=[[0,0.5],[1,0.5]];portConstraint=eastwest;top=0;left=0;right=0;bottom=0;" vertex="1" parent="H_4iObofJ6NXQ9z-i4Xd-43">
          <mxGeometry y="90" width="180" height="30" as="geometry" />
        </mxCell>
        <mxCell id="H_4iObofJ6NXQ9z-i4Xd-51" value="2" style="shape=partialRectangle;connectable=0;fillColor=none;top=0;left=0;bottom=0;right=0;editable=1;overflow=hidden;" vertex="1" parent="H_4iObofJ6NXQ9z-i4Xd-50">
          <mxGeometry width="30" height="30" as="geometry">
            <mxRectangle width="30" height="30" as="alternateBounds" />
          </mxGeometry>
        </mxCell>
        <mxCell id="H_4iObofJ6NXQ9z-i4Xd-52" value="Вид подразделения" style="shape=partialRectangle;connectable=0;fillColor=none;top=0;left=0;bottom=0;right=0;align=left;spacingLeft=6;overflow=hidden;" vertex="1" parent="H_4iObofJ6NXQ9z-i4Xd-50">
          <mxGeometry x="30" width="150" height="30" as="geometry">
            <mxRectangle width="150" height="30" as="alternateBounds" />
          </mxGeometry>
        </mxCell>
        <mxCell id="H_4iObofJ6NXQ9z-i4Xd-60" value="Дисциплины" style="shape=table;startSize=30;container=1;collapsible=1;childLayout=tableLayout;fixedRows=1;rowLines=0;fontStyle=1;align=center;resizeLast=1;" vertex="1" parent="H_4iObofJ6NXQ9z-i4Xd-1">
          <mxGeometry x="530" y="290" width="180" height="90" as="geometry" />
        </mxCell>
        <mxCell id="H_4iObofJ6NXQ9z-i4Xd-61" value="" style="shape=tableRow;horizontal=0;startSize=0;swimlaneHead=0;swimlaneBody=0;fillColor=none;collapsible=0;dropTarget=0;points=[[0,0.5],[1,0.5]];portConstraint=eastwest;top=0;left=0;right=0;bottom=1;" vertex="1" parent="H_4iObofJ6NXQ9z-i4Xd-60">
          <mxGeometry y="30" width="180" height="30" as="geometry" />
        </mxCell>
        <mxCell id="H_4iObofJ6NXQ9z-i4Xd-62" value="PK" style="shape=partialRectangle;connectable=0;fillColor=none;top=0;left=0;bottom=0;right=0;fontStyle=1;overflow=hidden;" vertex="1" parent="H_4iObofJ6NXQ9z-i4Xd-61">
          <mxGeometry width="30" height="30" as="geometry">
            <mxRectangle width="30" height="30" as="alternateBounds" />
          </mxGeometry>
        </mxCell>
        <mxCell id="H_4iObofJ6NXQ9z-i4Xd-63" value="UniqueID" style="shape=partialRectangle;connectable=0;fillColor=none;top=0;left=0;bottom=0;right=0;align=left;spacingLeft=6;fontStyle=5;overflow=hidden;" vertex="1" parent="H_4iObofJ6NXQ9z-i4Xd-61">
          <mxGeometry x="30" width="150" height="30" as="geometry">
            <mxRectangle width="150" height="30" as="alternateBounds" />
          </mxGeometry>
        </mxCell>
        <mxCell id="H_4iObofJ6NXQ9z-i4Xd-64" value="" style="shape=tableRow;horizontal=0;startSize=0;swimlaneHead=0;swimlaneBody=0;fillColor=none;collapsible=0;dropTarget=0;points=[[0,0.5],[1,0.5]];portConstraint=eastwest;top=0;left=0;right=0;bottom=0;" vertex="1" parent="H_4iObofJ6NXQ9z-i4Xd-60">
          <mxGeometry y="60" width="180" height="30" as="geometry" />
        </mxCell>
        <mxCell id="H_4iObofJ6NXQ9z-i4Xd-65" value="1" style="shape=partialRectangle;connectable=0;fillColor=none;top=0;left=0;bottom=0;right=0;editable=1;overflow=hidden;" vertex="1" parent="H_4iObofJ6NXQ9z-i4Xd-64">
          <mxGeometry width="30" height="30" as="geometry">
            <mxRectangle width="30" height="30" as="alternateBounds" />
          </mxGeometry>
        </mxCell>
        <mxCell id="H_4iObofJ6NXQ9z-i4Xd-66" value="Название" style="shape=partialRectangle;connectable=0;fillColor=none;top=0;left=0;bottom=0;right=0;align=left;spacingLeft=6;overflow=hidden;" vertex="1" parent="H_4iObofJ6NXQ9z-i4Xd-64">
          <mxGeometry x="30" width="150" height="30" as="geometry">
            <mxRectangle width="150" height="30" as="alternateBounds" />
          </mxGeometry>
        </mxCell>
        <mxCell id="H_4iObofJ6NXQ9z-i4Xd-73" value="" style="edgeStyle=entityRelationEdgeStyle;fontSize=12;html=1;endArrow=ERmany;startArrow=ERmany;rounded=0;entryX=-0.017;entryY=0.067;entryDx=0;entryDy=0;entryPerimeter=0;" edge="1" parent="H_4iObofJ6NXQ9z-i4Xd-1" target="H_4iObofJ6NXQ9z-i4Xd-50">
          <mxGeometry width="100" height="100" relative="1" as="geometry">
            <mxPoint x="280" y="202" as="sourcePoint" />
            <mxPoint x="630" y="380" as="targetPoint" />
          </mxGeometry>
        </mxCell>
        <mxCell id="H_4iObofJ6NXQ9z-i4Xd-74" value="" style="edgeStyle=entityRelationEdgeStyle;fontSize=12;html=1;endArrow=ERmany;startArrow=ERmany;rounded=0;entryX=1;entryY=0.5;entryDx=0;entryDy=0;" edge="1" parent="H_4iObofJ6NXQ9z-i4Xd-1" source="H_4iObofJ6NXQ9z-i4Xd-43" target="H_4iObofJ6NXQ9z-i4Xd-64">
          <mxGeometry width="100" height="100" relative="1" as="geometry">
            <mxPoint x="530" y="480" as="sourcePoint" />
            <mxPoint x="630" y="380" as="targetPoint" />
          </mxGeometry>
        </mxCell>
        <mxCell id="H_4iObofJ6NXQ9z-i4Xd-75" value="" style="edgeStyle=entityRelationEdgeStyle;fontSize=12;html=1;endArrow=ERmany;startArrow=ERmany;rounded=0;exitX=1;exitY=0.5;exitDx=0;exitDy=0;entryX=0;entryY=0.5;entryDx=0;entryDy=0;" edge="1" parent="H_4iObofJ6NXQ9z-i4Xd-1" source="H_4iObofJ6NXQ9z-i4Xd-39" target="H_4iObofJ6NXQ9z-i4Xd-64">
          <mxGeometry width="100" height="100" relative="1" as="geometry">
            <mxPoint x="530" y="480" as="sourcePoint" />
            <mxPoint x="630" y="380" as="targetPoint" />
          </mxGeometry>
        </mxCell>
      </root>
    </mxGraphModel>
  </diagram>
  <diagram id="BU6B2RoqdufHjW1Wm3ff" name="Жизненный цикл Дневник Ру">
    <mxGraphModel dx="1497" dy="836" grid="1" gridSize="10" guides="1" tooltips="1" connect="1" arrows="1" fold="1" page="1" pageScale="1" pageWidth="1169" pageHeight="827" math="0" shadow="0">
      <root>
        <mxCell id="KySIWRDJerEE6BudXnu_-0" />
        <mxCell id="KySIWRDJerEE6BudXnu_-1" parent="KySIWRDJerEE6BudXnu_-0" />
        <mxCell id="KySIWRDJerEE6BudXnu_-13" value="" style="edgeStyle=orthogonalEdgeStyle;rounded=0;orthogonalLoop=1;jettySize=auto;html=1;" edge="1" parent="KySIWRDJerEE6BudXnu_-1" target="KySIWRDJerEE6BudXnu_-11">
          <mxGeometry relative="1" as="geometry">
            <mxPoint x="390.05" y="620" as="sourcePoint" />
          </mxGeometry>
        </mxCell>
        <mxCell id="KySIWRDJerEE6BudXnu_-14" style="edgeStyle=orthogonalEdgeStyle;rounded=0;orthogonalLoop=1;jettySize=auto;html=1;exitX=0.5;exitY=0;exitDx=0;exitDy=0;entryX=0;entryY=0.5;entryDx=0;entryDy=0;" edge="1" parent="KySIWRDJerEE6BudXnu_-1" target="KySIWRDJerEE6BudXnu_-10">
          <mxGeometry relative="1" as="geometry">
            <mxPoint x="330.05" y="580" as="sourcePoint" />
            <Array as="points">
              <mxPoint x="330.05" y="520" />
            </Array>
          </mxGeometry>
        </mxCell>
        <mxCell id="KySIWRDJerEE6BudXnu_-36" style="edgeStyle=orthogonalEdgeStyle;rounded=0;orthogonalLoop=1;jettySize=auto;html=1;exitX=0.5;exitY=1;exitDx=0;exitDy=0;entryX=0;entryY=0.5;entryDx=0;entryDy=0;" edge="1" parent="KySIWRDJerEE6BudXnu_-1" source="KySIWRDJerEE6BudXnu_-8" target="KySIWRDJerEE6BudXnu_-12">
          <mxGeometry relative="1" as="geometry" />
        </mxCell>
        <mxCell id="KySIWRDJerEE6BudXnu_-8" value="Авторизация пользователя" style="ellipse;whiteSpace=wrap;html=1;" vertex="1" parent="KySIWRDJerEE6BudXnu_-1">
          <mxGeometry x="270.05" y="580" width="120" height="80" as="geometry" />
        </mxCell>
        <mxCell id="KySIWRDJerEE6BudXnu_-21" style="edgeStyle=orthogonalEdgeStyle;rounded=0;orthogonalLoop=1;jettySize=auto;html=1;exitX=0.5;exitY=0;exitDx=0;exitDy=0;entryX=0.5;entryY=1;entryDx=0;entryDy=0;" edge="1" parent="KySIWRDJerEE6BudXnu_-1" source="KySIWRDJerEE6BudXnu_-10" target="KySIWRDJerEE6BudXnu_-19">
          <mxGeometry relative="1" as="geometry" />
        </mxCell>
        <mxCell id="KySIWRDJerEE6BudXnu_-28" style="edgeStyle=orthogonalEdgeStyle;rounded=0;orthogonalLoop=1;jettySize=auto;html=1;exitX=1;exitY=0.5;exitDx=0;exitDy=0;entryX=0.5;entryY=0;entryDx=0;entryDy=0;" edge="1" parent="KySIWRDJerEE6BudXnu_-1" source="KySIWRDJerEE6BudXnu_-10" target="KySIWRDJerEE6BudXnu_-27">
          <mxGeometry relative="1" as="geometry" />
        </mxCell>
        <mxCell id="KySIWRDJerEE6BudXnu_-40" style="edgeStyle=orthogonalEdgeStyle;rounded=0;orthogonalLoop=1;jettySize=auto;html=1;exitX=1;exitY=0.5;exitDx=0;exitDy=0;entryX=0;entryY=0.5;entryDx=0;entryDy=0;" edge="1" parent="KySIWRDJerEE6BudXnu_-1" source="KySIWRDJerEE6BudXnu_-10" target="KySIWRDJerEE6BudXnu_-33">
          <mxGeometry relative="1" as="geometry" />
        </mxCell>
        <mxCell id="KySIWRDJerEE6BudXnu_-10" value="Права админа" style="rounded=1;whiteSpace=wrap;html=1;" vertex="1" parent="KySIWRDJerEE6BudXnu_-1">
          <mxGeometry x="470.05" y="490" width="120" height="60" as="geometry" />
        </mxCell>
        <mxCell id="KySIWRDJerEE6BudXnu_-29" style="edgeStyle=orthogonalEdgeStyle;rounded=0;orthogonalLoop=1;jettySize=auto;html=1;exitX=1;exitY=0.5;exitDx=0;exitDy=0;entryX=0;entryY=0.5;entryDx=0;entryDy=0;" edge="1" parent="KySIWRDJerEE6BudXnu_-1" source="KySIWRDJerEE6BudXnu_-11" target="KySIWRDJerEE6BudXnu_-27">
          <mxGeometry relative="1" as="geometry" />
        </mxCell>
        <mxCell id="KySIWRDJerEE6BudXnu_-41" style="edgeStyle=orthogonalEdgeStyle;rounded=0;orthogonalLoop=1;jettySize=auto;html=1;exitX=1;exitY=0.5;exitDx=0;exitDy=0;" edge="1" parent="KySIWRDJerEE6BudXnu_-1" source="KySIWRDJerEE6BudXnu_-11" target="KySIWRDJerEE6BudXnu_-32">
          <mxGeometry relative="1" as="geometry" />
        </mxCell>
        <mxCell id="KySIWRDJerEE6BudXnu_-11" value="Права преподавателя" style="rounded=1;whiteSpace=wrap;html=1;" vertex="1" parent="KySIWRDJerEE6BudXnu_-1">
          <mxGeometry x="470.05" y="590" width="120" height="60" as="geometry" />
        </mxCell>
        <mxCell id="KySIWRDJerEE6BudXnu_-31" style="edgeStyle=orthogonalEdgeStyle;rounded=0;orthogonalLoop=1;jettySize=auto;html=1;exitX=1;exitY=0.5;exitDx=0;exitDy=0;entryX=0;entryY=0.5;entryDx=0;entryDy=0;" edge="1" parent="KySIWRDJerEE6BudXnu_-1" source="KySIWRDJerEE6BudXnu_-12" target="KySIWRDJerEE6BudXnu_-27">
          <mxGeometry relative="1" as="geometry" />
        </mxCell>
        <mxCell id="KySIWRDJerEE6BudXnu_-12" value="Права студента" style="rounded=1;whiteSpace=wrap;html=1;" vertex="1" parent="KySIWRDJerEE6BudXnu_-1">
          <mxGeometry x="470.05" y="685" width="120" height="60" as="geometry" />
        </mxCell>
        <mxCell id="KySIWRDJerEE6BudXnu_-17" value="&lt;span&gt;Создание/редактирование дисциплины&lt;/span&gt;" style="shape=hexagon;perimeter=hexagonPerimeter2;whiteSpace=wrap;html=1;fixedSize=1;" vertex="1" parent="KySIWRDJerEE6BudXnu_-1">
          <mxGeometry x="470.05" y="120" width="120" height="80" as="geometry" />
        </mxCell>
        <mxCell id="KySIWRDJerEE6BudXnu_-18" value="Создание/редактирование группы" style="shape=hexagon;perimeter=hexagonPerimeter2;whiteSpace=wrap;html=1;fixedSize=1;" vertex="1" parent="KySIWRDJerEE6BudXnu_-1">
          <mxGeometry x="470.05" y="230" width="120" height="80" as="geometry" />
        </mxCell>
        <mxCell id="KySIWRDJerEE6BudXnu_-42" style="edgeStyle=orthogonalEdgeStyle;rounded=0;orthogonalLoop=1;jettySize=auto;html=1;exitX=0;exitY=0.5;exitDx=0;exitDy=0;entryX=0;entryY=0.5;entryDx=0;entryDy=0;" edge="1" parent="KySIWRDJerEE6BudXnu_-1" source="KySIWRDJerEE6BudXnu_-19" target="KySIWRDJerEE6BudXnu_-8">
          <mxGeometry relative="1" as="geometry" />
        </mxCell>
        <mxCell id="KySIWRDJerEE6BudXnu_-19" value="Создание/редактирование пользователя" style="shape=hexagon;perimeter=hexagonPerimeter2;whiteSpace=wrap;html=1;fixedSize=1;" vertex="1" parent="KySIWRDJerEE6BudXnu_-1">
          <mxGeometry x="470.05" y="340" width="120" height="80" as="geometry" />
        </mxCell>
        <mxCell id="KySIWRDJerEE6BudXnu_-22" value="" style="endArrow=none;html=1;rounded=0;exitX=0.5;exitY=0;exitDx=0;exitDy=0;entryX=0.5;entryY=1;entryDx=0;entryDy=0;" edge="1" parent="KySIWRDJerEE6BudXnu_-1" source="KySIWRDJerEE6BudXnu_-19" target="KySIWRDJerEE6BudXnu_-18">
          <mxGeometry width="50" height="50" relative="1" as="geometry">
            <mxPoint x="700.05" y="460" as="sourcePoint" />
            <mxPoint x="750.05" y="410" as="targetPoint" />
          </mxGeometry>
        </mxCell>
        <mxCell id="KySIWRDJerEE6BudXnu_-23" value="" style="endArrow=none;html=1;rounded=0;exitX=0.5;exitY=0;exitDx=0;exitDy=0;entryX=0.5;entryY=1;entryDx=0;entryDy=0;" edge="1" parent="KySIWRDJerEE6BudXnu_-1" source="KySIWRDJerEE6BudXnu_-18" target="KySIWRDJerEE6BudXnu_-17">
          <mxGeometry width="50" height="50" relative="1" as="geometry">
            <mxPoint x="700.05" y="460" as="sourcePoint" />
            <mxPoint x="750.05" y="410" as="targetPoint" />
          </mxGeometry>
        </mxCell>
        <mxCell id="KySIWRDJerEE6BudXnu_-27" value="Просмотр дисциплины" style="rhombus;whiteSpace=wrap;html=1;" vertex="1" parent="KySIWRDJerEE6BudXnu_-1">
          <mxGeometry x="670.05" y="660" width="110" height="110" as="geometry" />
        </mxCell>
        <mxCell id="KySIWRDJerEE6BudXnu_-32" value="Поиск по сотрудникам" style="rhombus;whiteSpace=wrap;html=1;" vertex="1" parent="KySIWRDJerEE6BudXnu_-1">
          <mxGeometry x="870.05" y="570" width="110" height="100" as="geometry" />
        </mxCell>
        <mxCell id="KySIWRDJerEE6BudXnu_-33" value="Поиск по группам" style="rhombus;whiteSpace=wrap;html=1;" vertex="1" parent="KySIWRDJerEE6BudXnu_-1">
          <mxGeometry x="870.05" y="430" width="110" height="100" as="geometry" />
        </mxCell>
        <mxCell id="KySIWRDJerEE6BudXnu_-39" value="" style="endArrow=none;html=1;rounded=0;exitX=0.5;exitY=0;exitDx=0;exitDy=0;entryX=0.5;entryY=1;entryDx=0;entryDy=0;" edge="1" parent="KySIWRDJerEE6BudXnu_-1" source="KySIWRDJerEE6BudXnu_-32" target="KySIWRDJerEE6BudXnu_-33">
          <mxGeometry width="50" height="50" relative="1" as="geometry">
            <mxPoint x="840.05" y="520" as="sourcePoint" />
            <mxPoint x="890.05" y="470" as="targetPoint" />
          </mxGeometry>
        </mxCell>
      </root>
    </mxGraphModel>
  </diagram>
  <diagram id="QDI68F1kSJapzTasZuZf" name="Жизненный цикл">
    <mxGraphModel dx="2031" dy="1134" grid="1" gridSize="10" guides="1" tooltips="1" connect="1" arrows="1" fold="1" page="1" pageScale="1" pageWidth="4681" pageHeight="3300" math="0" shadow="0">
      <root>
        <mxCell id="o9FfTPZpxH-69FEfKLFc-0" />
        <mxCell id="o9FfTPZpxH-69FEfKLFc-1" parent="o9FfTPZpxH-69FEfKLFc-0" />
        <mxCell id="FeqSMJCopUsaeqi25odb-14" style="edgeStyle=orthogonalEdgeStyle;rounded=0;orthogonalLoop=1;jettySize=auto;html=1;exitX=0.5;exitY=1;exitDx=0;exitDy=0;entryX=0.5;entryY=0;entryDx=0;entryDy=0;fontSize=14;strokeWidth=1;" edge="1" parent="o9FfTPZpxH-69FEfKLFc-1" source="o9FfTPZpxH-69FEfKLFc-2" target="FeqSMJCopUsaeqi25odb-1">
          <mxGeometry relative="1" as="geometry" />
        </mxCell>
        <mxCell id="o9FfTPZpxH-69FEfKLFc-2" value="&lt;font face=&quot;arial&quot;&gt;&lt;span style=&quot;font-size: 14.6667px&quot;&gt;Загружает конфигурацию приложения в качестве массива&lt;/span&gt;&lt;/font&gt;" style="rounded=0;whiteSpace=wrap;html=1;strokeWidth=1;" vertex="1" parent="o9FfTPZpxH-69FEfKLFc-1">
          <mxGeometry x="1040" y="1020" width="160" height="80" as="geometry" />
        </mxCell>
        <mxCell id="o9FfTPZpxH-69FEfKLFc-3" value="" style="endArrow=classic;html=1;rounded=0;entryX=0.5;entryY=0;entryDx=0;entryDy=0;strokeWidth=1;" edge="1" parent="o9FfTPZpxH-69FEfKLFc-1" target="o9FfTPZpxH-69FEfKLFc-2">
          <mxGeometry width="50" height="50" relative="1" as="geometry">
            <mxPoint x="1120" y="900" as="sourcePoint" />
            <mxPoint x="1440" y="1080" as="targetPoint" />
          </mxGeometry>
        </mxCell>
        <mxCell id="o9FfTPZpxH-69FEfKLFc-4" value="&lt;p style=&quot;line-height: 1.1&quot;&gt;&lt;font style=&quot;font-size: 11px&quot;&gt;Входящий HTTP- запрос&amp;nbsp;&lt;/font&gt;&lt;/p&gt;" style="text;strokeColor=none;fillColor=none;html=1;fontSize=24;fontStyle=1;verticalAlign=middle;align=center;strokeWidth=1;" vertex="1" parent="o9FfTPZpxH-69FEfKLFc-1">
          <mxGeometry x="1000" y="920" width="100" height="40" as="geometry" />
        </mxCell>
        <mxCell id="FeqSMJCopUsaeqi25odb-15" style="edgeStyle=orthogonalEdgeStyle;rounded=0;orthogonalLoop=1;jettySize=auto;html=1;exitX=0.5;exitY=1;exitDx=0;exitDy=0;entryX=0.5;entryY=0;entryDx=0;entryDy=0;fontSize=14;strokeWidth=1;" edge="1" parent="o9FfTPZpxH-69FEfKLFc-1" source="FeqSMJCopUsaeqi25odb-1" target="FeqSMJCopUsaeqi25odb-11">
          <mxGeometry relative="1" as="geometry" />
        </mxCell>
        <mxCell id="FeqSMJCopUsaeqi25odb-1" value="&lt;font face=&quot;arial&quot;&gt;&lt;span style=&quot;font-size: 14.6667px&quot;&gt;Настраивает автозагрузку классов&lt;/span&gt;&lt;/font&gt;" style="rounded=0;whiteSpace=wrap;html=1;strokeWidth=1;" vertex="1" parent="o9FfTPZpxH-69FEfKLFc-1">
          <mxGeometry x="1040" y="1130" width="160" height="80" as="geometry" />
        </mxCell>
        <mxCell id="FeqSMJCopUsaeqi25odb-19" style="edgeStyle=orthogonalEdgeStyle;rounded=0;orthogonalLoop=1;jettySize=auto;html=1;exitX=0.5;exitY=1;exitDx=0;exitDy=0;entryX=0.5;entryY=0;entryDx=0;entryDy=0;fontSize=14;strokeWidth=1;" edge="1" parent="o9FfTPZpxH-69FEfKLFc-1" source="FeqSMJCopUsaeqi25odb-4" target="FeqSMJCopUsaeqi25odb-5">
          <mxGeometry relative="1" as="geometry" />
        </mxCell>
        <mxCell id="FeqSMJCopUsaeqi25odb-4" value="&lt;font face=&quot;arial&quot;&gt;&lt;span style=&quot;font-size: 14.6667px&quot;&gt;Разбор информации запроса в маршрут с параметрами&lt;/span&gt;&lt;/font&gt;" style="rounded=0;whiteSpace=wrap;html=1;strokeWidth=1;" vertex="1" parent="o9FfTPZpxH-69FEfKLFc-1">
          <mxGeometry x="1040" y="1590" width="160" height="80" as="geometry" />
        </mxCell>
        <mxCell id="FeqSMJCopUsaeqi25odb-20" style="edgeStyle=orthogonalEdgeStyle;rounded=0;orthogonalLoop=1;jettySize=auto;html=1;exitX=0.5;exitY=1;exitDx=0;exitDy=0;entryX=0.5;entryY=0;entryDx=0;entryDy=0;fontSize=14;strokeWidth=1;" edge="1" parent="o9FfTPZpxH-69FEfKLFc-1" source="FeqSMJCopUsaeqi25odb-5" target="FeqSMJCopUsaeqi25odb-13">
          <mxGeometry relative="1" as="geometry" />
        </mxCell>
        <mxCell id="FeqSMJCopUsaeqi25odb-5" value="&lt;font face=&quot;arial&quot;&gt;&lt;span style=&quot;font-size: 14.6667px&quot;&gt;Создание объектов контроллера и действия согласно указанному маршруту&lt;/span&gt;&lt;/font&gt;" style="rounded=0;whiteSpace=wrap;html=1;strokeWidth=1;" vertex="1" parent="o9FfTPZpxH-69FEfKLFc-1">
          <mxGeometry x="1040" y="1700" width="160" height="80" as="geometry" />
        </mxCell>
        <mxCell id="FeqSMJCopUsaeqi25odb-17" style="edgeStyle=orthogonalEdgeStyle;rounded=0;orthogonalLoop=1;jettySize=auto;html=1;exitX=0.5;exitY=1;exitDx=0;exitDy=0;entryX=0.5;entryY=0;entryDx=0;entryDy=0;fontSize=14;strokeWidth=1;" edge="1" parent="o9FfTPZpxH-69FEfKLFc-1" source="FeqSMJCopUsaeqi25odb-8" target="FeqSMJCopUsaeqi25odb-12">
          <mxGeometry relative="1" as="geometry" />
        </mxCell>
        <mxCell id="FeqSMJCopUsaeqi25odb-8" value="&lt;font face=&quot;arial&quot;&gt;&lt;span style=&quot;font-size: 14.6667px&quot;&gt;Вызывает метод для запуска приложения&lt;/span&gt;&lt;/font&gt;" style="rounded=0;whiteSpace=wrap;html=1;strokeWidth=1;" vertex="1" parent="o9FfTPZpxH-69FEfKLFc-1">
          <mxGeometry x="1040" y="1340" width="160" height="80" as="geometry" />
        </mxCell>
        <mxCell id="FeqSMJCopUsaeqi25odb-16" style="edgeStyle=orthogonalEdgeStyle;rounded=0;orthogonalLoop=1;jettySize=auto;html=1;exitX=0.5;exitY=1;exitDx=0;exitDy=0;entryX=0.5;entryY=0;entryDx=0;entryDy=0;fontSize=14;strokeWidth=1;" edge="1" parent="o9FfTPZpxH-69FEfKLFc-1" source="FeqSMJCopUsaeqi25odb-11" target="FeqSMJCopUsaeqi25odb-8">
          <mxGeometry relative="1" as="geometry" />
        </mxCell>
        <mxCell id="FeqSMJCopUsaeqi25odb-11" value="&lt;font face=&quot;arial&quot;&gt;&lt;span style=&quot;font-size: 14.6667px&quot;&gt;Создаёт новый объект приложения&lt;/span&gt;&lt;/font&gt;" style="rounded=0;whiteSpace=wrap;html=1;strokeWidth=1;" vertex="1" parent="o9FfTPZpxH-69FEfKLFc-1">
          <mxGeometry x="1040" y="1240" width="160" height="80" as="geometry" />
        </mxCell>
        <mxCell id="FeqSMJCopUsaeqi25odb-18" style="edgeStyle=orthogonalEdgeStyle;rounded=0;orthogonalLoop=1;jettySize=auto;html=1;exitX=0.5;exitY=1;exitDx=0;exitDy=0;entryX=0.5;entryY=0;entryDx=0;entryDy=0;fontSize=14;strokeWidth=1;" edge="1" parent="o9FfTPZpxH-69FEfKLFc-1" source="FeqSMJCopUsaeqi25odb-12" target="FeqSMJCopUsaeqi25odb-4">
          <mxGeometry relative="1" as="geometry" />
        </mxCell>
        <mxCell id="FeqSMJCopUsaeqi25odb-21" style="edgeStyle=orthogonalEdgeStyle;rounded=0;orthogonalLoop=1;jettySize=auto;html=1;exitX=0;exitY=0.5;exitDx=0;exitDy=0;entryX=0;entryY=0.5;entryDx=0;entryDy=0;fontSize=14;strokeWidth=1;" edge="1" parent="o9FfTPZpxH-69FEfKLFc-1" source="FeqSMJCopUsaeqi25odb-12" target="o9FfTPZpxH-69FEfKLFc-2">
          <mxGeometry relative="1" as="geometry">
            <Array as="points">
              <mxPoint x="950" y="1510" />
              <mxPoint x="950" y="1060" />
            </Array>
          </mxGeometry>
        </mxCell>
        <mxCell id="FeqSMJCopUsaeqi25odb-12" value="&lt;font style=&quot;font-size: 14px&quot;&gt;Инициализация вспомогательных объектов&lt;/font&gt;" style="shape=hexagon;perimeter=hexagonPerimeter2;whiteSpace=wrap;html=1;fixedSize=1;fontSize=11;strokeWidth=1;" vertex="1" parent="o9FfTPZpxH-69FEfKLFc-1">
          <mxGeometry x="1030" y="1460" width="180" height="100" as="geometry" />
        </mxCell>
        <mxCell id="FeqSMJCopUsaeqi25odb-13" value="&lt;span style=&quot;font-family: &amp;#34;arial&amp;#34; ; font-size: 14.6667px&quot;&gt;Запуск действия&lt;/span&gt;" style="ellipse;whiteSpace=wrap;html=1;fontSize=14;strokeWidth=1;" vertex="1" parent="o9FfTPZpxH-69FEfKLFc-1">
          <mxGeometry x="1035" y="1800" width="170" height="120" as="geometry" />
        </mxCell>
        <mxCell id="FeqSMJCopUsaeqi25odb-22" value="Да" style="text;strokeColor=none;fillColor=none;html=1;fontSize=24;fontStyle=1;verticalAlign=middle;align=center;" vertex="1" parent="o9FfTPZpxH-69FEfKLFc-1">
          <mxGeometry x="1220" y="1510" width="100" height="40" as="geometry" />
        </mxCell>
        <mxCell id="FeqSMJCopUsaeqi25odb-23" value="Нет" style="text;strokeColor=none;fillColor=none;html=1;fontSize=24;fontStyle=1;verticalAlign=middle;align=center;" vertex="1" parent="o9FfTPZpxH-69FEfKLFc-1">
          <mxGeometry x="910" y="1510" width="100" height="40" as="geometry" />
        </mxCell>
      </root>
    </mxGraphModel>
  </diagram>
</mxfile>
